# xmcd CD database file
#
# Track frame offsets:
#	187
#	15434
#	33032
#	53802
#	80002
#	99442
#	120892
#	138324
#	156794
#	177307
#	185654
#
# Disc length: 2733 seconds
#
# Revision: 4
# Processed by: cddbd v1.5PL3 Copyright (c) Steve Scherf et al.
# Submitted via: CDex 1.50Beta7
#
DISCID=7e0aab0b
DTITLE=ZEPPET STORE - "CUE"
DYEAR=1997
DGENRE=Rock
TTITLE0=BLUE
TTITLE1=TO BE FREE
TTITLE2=エヴリィ
TTITLE3=HAVE A WING
TTITLE4=SUPERSTITION
TTITLE5=声
TTITLE6=ROUND AND ROUND
TTITLE7=TO MY FUTURE
TTITLE8=A LITTLE FLOWER
TTITLE9=STARE AFTER YOU
TTITLE10=奇跡が起きるまで
EXTD=YEAR: 1997.04.23
EXTT0=
EXTT1=
EXTT2=
EXTT3=
EXTT4=
EXTT5=
EXTT6=
EXTT7=
EXTT8=
EXTT9=
EXTT10=
PLAYORDER=
